<svg xmlns="http://www.w3.org/2000/svg" xmlns:xlink="http://www.w3.org/1999/xlink" version="1.1" width="33" height="31" viewBox="0 0 1000 1000" xml:space="preserve">
<desc>Created with Fabric.js 3.5.0</desc>
<defs>
</defs>
<rect x="0" y="0" width="100%" height="100%" fill="rgba(102,51,102,0)"/>
<g transform="matrix(10.8298 0 0 6.237 502.4761 491.3387)" id="748713">
<path style="stroke: none; stroke-width: 0; stroke-dasharray: none; stroke-linecap: butt; stroke-dashoffset: 0; stroke-linejoin: miter; stroke-miterlimit: 4; is-custom-font: none; font-file-url: none; fill: rgb(109,127,151); fill-rule: nonzero; opacity: 1;" vector-effect="non-scaling-stroke" transform=" translate(-46.5001, -78.5)" d="M 2.6167 78.5 C 2.6167 57.2341 7.7391 38.064 15.8764 24.2946 C 24.0482 10.4665 34.9664 2.5 46.5001 2.5 C 58.0338 2.5 68.952 10.4665 77.1238 24.2946 C 85.2611 38.064 90.3835 57.2341 90.3835 78.5 C 90.3835 99.7659 85.2611 118.936 77.1238 132.705 C 68.952 146.533 58.0338 154.5 46.5001 154.5 C 34.9664 154.5 24.0482 146.533 15.8764 132.705 C 7.7391 118.936 2.6167 99.7659 2.6167 78.5 Z" stroke-linecap="round"/>
</g>
<g transform="matrix(38.3241 0 0 38.3241 500.0002 425.7428)" id="460666">
<path style="stroke: none; stroke-width: 1; stroke-dasharray: none; stroke-linecap: butt; stroke-dashoffset: 0; stroke-linejoin: miter; stroke-miterlimit: 4; is-custom-font: none; font-file-url: none; fill: rgb(255,255,255); fill-rule: nonzero; opacity: 1;" vector-effect="non-scaling-stroke" transform=" translate(-7.5, -6.4995)" d="M 15 6.495 L 8.766 0.014 V 3.88 H 7.441 C 3.33 3.88 0 7.039 0 10.936 v 2.049 l 0.589 -0.612 C 2.59 10.294 5.422 9.11 8.39 9.11 h 0.375 v 3.867 L 15 6.495 z" stroke-linecap="round"/>
</g>
</svg>